<?xml version="1.0" standalone="no"?>
<!DOCTYPE svg PUBLIC "-//W3C//DTD SVG 20010904//EN"
 "http://www.w3.org/TR/2001/REC-SVG-20010904/DTD/svg10.dtd">
<svg version="1.0" xmlns="http://www.w3.org/2000/svg"
 width="225.000000pt" height="225.000000pt" viewBox="0 0 225.000000 225.000000"
 preserveAspectRatio="xMidYMid meet">

<g transform="translate(0.000000,225.000000) scale(0.100000,-0.100000)"
fill="#000000" stroke="none">
<path d="M850 2231 c-57 -30 -74 -71 -75 -173 l0 -88 -223 0 c-248 0 -273 -5
-315 -64 -19 -26 -22 -46 -25 -136 -3 -121 10 -159 67 -197 l34 -23 812 0 812
0 34 23 c57 38 70 76 67 197 -3 90 -6 110 -25 136 -42 59 -67 64 -315 64
l-223 0 0 88 c-1 102 -18 143 -75 173 -31 17 -60 19 -275 19 -215 0 -244 -2
-275 -19z m460 -139 c16 -13 24 -32 28 -70 l5 -52 -218 0 -218 0 5 52 c8 84
19 88 213 88 142 0 166 -2 185 -18z"/>
<path d="M352 807 l3 -593 30 -59 c36 -70 93 -118 167 -140 77 -22 1069 -22
1146 0 74 22 131 70 167 140 l30 59 3 593 3 593 -776 0 -776 0 3 -593z m465
439 l28 -24 3 -419 c2 -230 0 -433 -3 -451 -13 -69 -75 -93 -120 -47 l-25 24
1 438 c0 241 4 446 8 457 7 19 46 45 68 46 7 0 25 -11 40 -24z m337 13 c13 -7
30 -24 36 -38 7 -18 10 -163 8 -465 l-3 -438 -24 -19 c-30 -24 -62 -24 -92 0
l-24 19 -3 438 c-3 460 -1 482 41 502 29 14 32 14 61 1z m355 -4 c16 -8 31
-25 35 -37 3 -13 6 -218 6 -456 l0 -433 -25 -24 c-45 -46 -107 -22 -120 47 -3
18 -5 221 -3 451 l3 419 28 24 c33 28 39 29 76 9z"/>
</g>
</svg>
