<?xml version="1.0" encoding="UTF-8"?>
<svg version="1.1" xmlns="http://www.w3.org/2000/svg" width="300" height="168">
<path d="M0 0 C99 0 198 0 300 0 C300 55.44 300 110.88 300 168 C201 168 102 168 0 168 C0 112.56 0 57.12 0 0 Z " fill="#A98342" transform="translate(0,0)"/>
<path d="M0 0 C45.54 0 91.08 0 138 0 C138 5.61 138 11.22 138 17 C129.585 17.495 129.585 17.495 121 18 C126.61 18 132.22 18 138 18 C138 26.91 138 35.82 138 45 C131.61384986 46.53062837 125.22759445 48.06080311 118.84106445 49.58984375 C116.67140509 50.1094375 114.50180777 50.62929036 112.33227539 51.14941406 C109.20215117 51.89978138 106.07180024 52.64919653 102.94140625 53.3984375 C101.98166397 53.6287265 101.02192169 53.8590155 100.03309631 54.09628296 C94.36643518 55.45142487 88.69106376 56.75117723 83 58 C84.65 58 86.3 58 88 58 C88 67.9 88 77.8 88 88 C86.35 88 84.7 88 83 88 C89.71822255 89.55248526 96.43732289 91.10106177 103.15777588 92.64385986 C106.59822335 93.4339008 110.03838288 94.22519146 113.47851562 95.01660156 C115.26062542 95.42628953 117.04285443 95.83545921 118.82519531 96.24414062 C121.42805043 96.84108228 124.03047101 97.43988625 126.6328125 98.0390625 C127.82803024 98.31249985 127.82803024 98.31249985 129.0473938 98.59146118 C132.08098745 99.2914258 135.0444659 100.01482197 138 101 C138 109.91 138 118.82 138 128 C126.32440599 128.25381726 116.30002262 128.09690669 105 125 C112.69837214 127.81647761 120.33174577 128.20652375 128.4375 128.5625 C129.35982422 128.60568359 130.28214844 128.64886719 131.23242188 128.69335938 C133.48814446 128.79854851 135.74405525 128.89968836 138 129 C138 134.61 138 140.22 138 146 C92.46 146 46.92 146 0 146 C0 127.19 0 108.38 0 89 C1.98 88.505 1.98 88.505 4 88 C2.68 88 1.36 88 0 88 C0 78.1 0 68.2 0 58 C6.57043463 59.09507244 7.48519842 59.80768425 12 64 C7.92891025 59.31207847 6.48447308 58.8527066 0 57 C0 38.19 0 19.38 0 0 Z " fill="#A98342" transform="translate(151,11)"/>
<path d="M0 0 C99 0 198 0 300 0 C300 55.44 300 110.88 300 168 C201 168 102 168 0 168 C0 112.56 0 57.12 0 0 Z M11 10 C11 15.94 11 21.88 11 28 C13.06507812 28.05607422 13.06507812 28.05607422 15.171875 28.11328125 C25.14037369 28.44728434 34.45845843 28.85899563 44 32 C43.20980469 31.7834375 42.41960938 31.566875 41.60546875 31.34375 C31.15795111 28.76470564 21.75145448 28.76627273 11 29 C11 37.91 11 46.82 11 56 C15.607929 57.12195276 20.21600056 58.2432823 24.82446289 59.36303711 C26.39095775 59.74385769 27.9573651 60.12503846 29.52368164 60.5065918 C31.77987925 61.05613247 34.03639226 61.60436122 36.29296875 62.15234375 C36.98899704 62.3221727 37.68502533 62.49200165 38.40214539 62.66697693 C41.92228886 63.52043046 45.44168535 64.32208231 49 65 C40.54362306 63.54749036 32.18178407 61.76090876 23.8125 59.875 C22.57435547 59.59785156 21.33621094 59.32070313 20.06054688 59.03515625 C17.03992655 58.3587239 14.01990068 57.67963794 11 57 C11 65.58 11 74.16 11 83 C16.47825081 83.4472136 16.47825081 83.4472136 19 82 C20.32 82 21.64 82 23 82 C23 83.32 23 84.64 23 86 C21.33388095 86.042721 19.66617115 86.04063832 18 86 C17.67 85.67 17.34 85.34 17 85 C15.02 85 13.04 85 11 85 C11 93.58 11 102.16 11 111 C14.465 110.505 14.465 110.505 18 110 C14.535 110.99 14.535 110.99 11 112 C11 120.91 11 129.82 11 139 C22.67559401 139.25381726 32.69997738 139.09690669 44 136 C33.16852966 139.56563931 22.30422576 139.69305005 11 140 C11 145.94 11 151.88 11 158 C102.74 158 194.48 158 289 158 C289 152.06 289 146.12 289 140 C287.67226563 139.95101562 286.34453125 139.90203125 284.9765625 139.8515625 C267.55410474 139.13852619 267.55410474 139.13852619 259 137 C260.051875 137.2165625 260.051875 137.2165625 261.125 137.4375 C262.07375 137.623125 263.0225 137.80875 264 138 C264.88945312 138.18433594 265.77890625 138.36867187 266.6953125 138.55859375 C271.10436895 139.14751027 275.43356829 139.10563923 279.875 139.0625 C282.88625 139.041875 285.8975 139.02125 289 139 C289 130.09 289 121.18 289 112 C284.02456351 110.76904398 279.04856995 109.54098154 274.07080078 108.31958008 C272.38519103 107.90514098 270.69995488 107.48917873 269.01513672 107.0715332 C258.06259422 104.35788895 247.11660573 101.94116302 236 100 C236 99.67 236 99.34 236 99 C236.99 99 237.98 99 239 99 C239 89.1 239 79.2 239 69 C237.35 69 235.7 69 234 69 C234.68537842 68.84362061 235.37075684 68.68724121 236.0769043 68.52612305 C247.00412839 66.01947905 257.90745641 63.41359309 268.8125 60.8125 C270.77668262 60.34435873 272.74087526 59.87625945 274.70507812 59.40820312 C279.47018618 58.27269657 284.23508801 57.13633024 289 56 C289 47.09 289 38.18 289 29 C281.41 29 273.82 29 266 29 C273.59 28.67 281.18 28.34 289 28 C289 22.06 289 16.12 289 10 C197.26 10 105.52 10 11 10 Z " fill="#FDFCFB" transform="translate(0,0)"/>
<path d="M0 0 C20.65189554 -0.62110964 38.04306117 0.56742674 53.75 15.25 C64.96027095 27.10200381 70.39437537 41.30469058 70.29296875 57.5703125 C69.74951908 63.93229666 67.83954531 69.9107022 66 76 C65.70867187 77.22074219 65.41734375 78.44148438 65.1171875 79.69921875 C63.91312872 83.25666514 62.75769334 84.54699562 60 87 C58.86595741 88.55594944 57.74146589 90.11889069 56.625 91.6875 C47.44563579 103.09012307 35.74426375 107.86687005 21.5390625 109.75244141 C14.34366186 110.45399297 7.22227605 110.21721131 0 110 C0 101.09 0 92.18 0 83 C2.97 82.01 5.94 81.02 9 80 C4.545 80.99 4.545 80.99 0 82 C0 73.42 0 64.84 0 56 C6 56 6 56 8 57 C9.32 57 10.64 57 12 57 C12 55.68 12 54.36 12 53 C10.33388095 52.957279 8.66617115 52.95936168 7 53 C6.505 53.495 6.505 53.495 6 54 C4.02 54 2.04 54 0 54 C0 45.42 0 36.84 0 28 C2.49175781 28.5775 4.98351562 29.155 7.55078125 29.75 C9.96328012 30.30677527 12.37603533 30.86242634 14.78881836 31.41796875 C16.46617336 31.80481351 18.14325918 32.19282737 19.82006836 32.58203125 C22.22960806 33.1410958 24.64008289 33.69595589 27.05078125 34.25 C27.80087967 34.42499023 28.55097809 34.59998047 29.32380676 34.78027344 C32.2841316 35.45713799 34.95219819 36 38 36 C36.95545654 35.76289307 35.91091309 35.52578613 34.8347168 35.28149414 C30.9598592 34.4015005 27.08545364 33.51953078 23.21118164 32.63696289 C21.53422109 32.2552382 19.85713839 31.87404971 18.17993164 31.4934082 C15.76937065 30.9462344 13.35925533 30.3971346 10.94921875 29.84765625 C10.19912033 29.6778273 9.44902191 29.50799835 8.67619324 29.33302307 C5.73237523 28.66025014 2.86689733 27.95563244 0 27 C0 18.09 0 9.18 0 0 Z " fill="#C09C57" transform="translate(11,29)"/>
<path d="M0 0 C1.0813623 0.00499512 2.16272461 0.00999023 3.27685547 0.01513672 C4.63182129 0.03334473 5.98678711 0.05155273 7.3828125 0.0703125 C11.7140625 0.1115625 16.0453125 0.1528125 20.5078125 0.1953125 C20.5078125 9.1053125 20.5078125 18.0153125 20.5078125 27.1953125 C14.12166236 28.72594087 7.73540695 30.25611561 1.34887695 31.78515625 C-0.82078241 32.30475 -2.99037973 32.82460286 -5.15991211 33.34472656 C-8.29003633 34.09509388 -11.42038726 34.84450903 -14.55078125 35.59375 C-15.51052353 35.824039 -16.47026581 36.054328 -17.45909119 36.29159546 C-23.12575232 37.64673737 -28.80112374 38.94648973 -34.4921875 40.1953125 C-32.8421875 40.1953125 -31.1921875 40.1953125 -29.4921875 40.1953125 C-29.4921875 50.0953125 -29.4921875 59.9953125 -29.4921875 70.1953125 C-31.1421875 70.1953125 -32.7921875 70.1953125 -34.4921875 70.1953125 C-27.77396495 71.74779776 -21.05486461 73.29637427 -14.33441162 74.83917236 C-10.89396415 75.6292133 -7.45380462 76.42050396 -4.01367188 77.21191406 C-2.23156208 77.62160203 -0.44933307 78.03077171 1.33300781 78.43945312 C3.93586293 79.03639478 6.53828351 79.63519875 9.140625 80.234375 C9.93743683 80.41666656 10.73424866 80.59895813 11.5552063 80.78677368 C14.58879995 81.4867383 17.5522784 82.21013447 20.5078125 83.1953125 C20.5078125 92.1053125 20.5078125 101.0153125 20.5078125 110.1953125 C3.30389978 110.71272341 -14.61076296 110.79011303 -28.4921875 99.1953125 C-29.27722656 98.54820313 -30.06226563 97.90109375 -30.87109375 97.234375 C-41.44104698 87.61231944 -48.60702131 73.49208768 -49.4921875 59.1953125 C-49.54503906 58.43605469 -49.59789062 57.67679688 -49.65234375 56.89453125 C-50.17913158 42.53383694 -44.42059229 28.46852941 -35.0546875 17.6953125 C-25.82478667 8.16918175 -13.69778015 -0.13045505 0 0 Z " fill="#BF9B55" transform="translate(268.4921875,28.8046875)"/>
<path d="M0 0 C19.13462322 -0.57547739 36.47308011 0.04879331 51.484375 13.171875 C61.87113829 23.01553956 67.73646519 35.46466116 68.3125 49.8828125 C68.36036037 53.93179984 68.22766257 57.95772458 68 62 C65.96956315 58.95434472 65.75746085 58.08703211 65.5625 54.625 C65.21704946 50.69070217 64.28677853 48.28103007 62 45 C62 44.34 62 43.68 62 43 C59.69 42.34 57.38 41.68 55 41 C55 40.34 55 39.68 55 39 C54.2678125 38.92523438 53.535625 38.85046875 52.78125 38.7734375 C41.58067513 37.41336769 30.84242395 34.55818987 19.93505859 31.74609375 C13.31403731 30.06302595 6.65437397 28.54476539 0 27 C0 18.09 0 9.18 0 0 Z " fill="#BE9952" transform="translate(11,29)"/>
<path d="M0 0 C0 8.58 0 17.16 0 26 C-6 26 -6 26 -8 25 C-9.32 25 -10.64 25 -12 25 C-12 26.32 -12 27.64 -12 29 C-10.33388095 29.042721 -8.66617115 29.04063832 -7 29 C-6.505 28.505 -6.505 28.505 -6 28 C-4.02 28 -2.04 28 0 28 C0 36.58 0 45.16 0 54 C-15.0551875 50.89337401 -30.03123673 47.49814442 -45 44 C-42.84561651 42.36705965 -40.69653296 40.80015585 -38.4375 39.3125 C-34.76286248 35.82630543 -33.14010914 31.99273126 -32.90234375 26.9140625 C-33.28850394 21.997584 -34.86438205 18.72884297 -38 15 C-39.93753311 13.47460719 -41.86804212 12.25979329 -44 11 C-41.31044603 9.20696402 -40.0220845 8.61622831 -37.00341797 7.94677734 C-36.20604218 7.76674164 -35.40866638 7.58670593 -34.58712769 7.4012146 C-33.30263229 7.12140244 -33.30263229 7.12140244 -31.9921875 6.8359375 C-31.11096222 6.63900299 -30.22973694 6.44206848 -29.32180786 6.23916626 C-26.50748152 5.61186595 -23.6912771 4.99347654 -20.875 4.375 C-18.96992857 3.95107549 -17.06497902 3.52660289 -15.16015625 3.1015625 C-1.20969643 0 -1.20969643 0 0 0 Z " fill="#F68B28" transform="translate(289,57)"/>
<path d="M0 0 C2.45695313 0.56589844 4.91390625 1.13179687 7.4453125 1.71484375 C9.83811772 2.26467141 12.23106345 2.81388347 14.62402344 3.36303711 C16.28074681 3.7435789 17.93732449 4.12475558 19.59375 4.5065918 C21.98138567 5.05686721 24.36954444 5.60482038 26.7578125 6.15234375 C27.49242706 6.3221727 28.22704163 6.49200165 28.98391724 6.66697693 C32.97358408 7.57906061 36.95541675 8.37411882 41 9 C41 10.32 41 11.64 41 13 C39.36739286 14.37482707 37.69774938 15.70647667 36 17 C32.86745187 21.82755705 33.41489325 27.47481474 34 33 C36.44294703 38.47220135 39.83227208 40.41613604 45 43 C41.22482039 45.2246484 37.14354962 45.99975914 32.91015625 46.91015625 C32.12861679 47.08252304 31.34707733 47.25488983 30.54185486 47.43247986 C28.04979944 47.98080325 25.55619546 48.52168988 23.0625 49.0625 C21.38856718 49.42986179 19.7147378 49.7976953 18.04101562 50.16601562 C12.03491986 51.48451275 6.03001047 52.79399791 0 54 C0 45.42 0 36.84 0 28 C6 28 6 28 8 29 C9.32 29 10.64 29 12 29 C12 27.68 12 26.36 12 25 C10.33388095 24.957279 8.66617115 24.95936168 7 25 C6.67 25.33 6.34 25.66 6 26 C4.02 26 2.04 26 0 26 C0 17.42 0 8.84 0 0 Z " fill="#F68B27" transform="translate(11,57)"/>
<path d="M0 0 C91.74 0 183.48 0 278 0 C278 0.33 278 0.66 278 1 C232.46 1 186.92 1 140 1 C140 19.81 140 38.62 140 58 C142.31 58.33 144.62 58.66 147 59 C149.38410534 60.4229983 150.96608821 62.06530342 153 64 C152.67 64.66 152.34 65.32 152 66 C150.6328125 64.76302083 149.265625 63.52604167 147.8984375 62.2890625 C145.49076998 60.52880473 145.49076998 60.52880473 140 59 C140 68.9 140 78.8 140 89 C143.465 88.505 143.465 88.505 147 88 C146.34 88.66 145.68 89.32 145 90 C143.35 90 141.7 90 140 90 C140 108.81 140 127.62 140 147 C185.54 147 231.08 147 278 147 C278 147.33 278 147.66 278 148 C186.26 148 94.52 148 0 148 C0 147.67 0 147.34 0 147 C45.54 147 91.08 147 138 147 C138 128.52 138 110.04 138 91 C135.03 90.01 132.06 89.02 129 88 C126.4375 85.8125 126.4375 85.8125 125 84 C125.33 83.34 125.66 82.68 126 82 C127.3671875 83.23697917 128.734375 84.47395833 130.1015625 85.7109375 C132.50923002 87.47119527 132.50923002 87.47119527 138 89 C138 79.1 138 69.2 138 59 C136.35 59 134.7 59 133 59 C136 57 136 57 138 57 C138 38.52 138 20.04 138 1 C92.46 1 46.92 1 0 1 C0 0.67 0 0.34 0 0 Z " fill="#C4AF8B" transform="translate(11,10)"/>
<path d="M0 0 C1.9587043 0.14076315 3.91696093 0.2877676 5.875 0.4375 C7.51082031 0.55931641 7.51082031 0.55931641 9.1796875 0.68359375 C12 1 12 1 14 2 C14 2.66 14 3.32 14 4 C14.7425 4.0825 15.485 4.165 16.25 4.25 C20.16949884 5.31895423 22.06973985 7.4028867 24.08984375 10.87109375 C25.93655505 15.1906545 25.57707592 19.69169631 24.453125 24.1875 C22.26295691 29.64225825 18.82486114 31.86473766 13.51953125 34.1484375 C9.23552488 35.59636523 6.13288256 35.95153173 1.93359375 34.078125 C-2.6113188 31.50016355 -5.87019292 28.88080789 -8 24 C-8.70232947 18.68131744 -9.17914966 13.09418556 -6.25 8.375 C-4.20069294 6.21184255 -2.78292412 4.99390147 0 4 C0 2.68 0 1.36 0 0 Z " fill="#C29F5A" transform="translate(52,66)"/>
<path d="M0 0 C0 9.9 0 19.8 0 30 C-6.80558539 28.86573577 -6.80558539 28.86573577 -10.25 26.1875 C-10.91515625 25.68605469 -11.5803125 25.18460938 -12.265625 24.66796875 C-15.31648481 21.73392114 -15.94822853 19.44375542 -16.4375 15.25 C-16.29453647 9.36650101 -13.02469682 5.15967661 -9.125 1 C-7 0 -7 0 0 0 Z " fill="#F49133" transform="translate(149,69)"/>
<path d="M0 0 C6.80558539 1.13426423 6.80558539 1.13426423 10.25 3.8125 C10.91515625 4.31394531 11.5803125 4.81539063 12.265625 5.33203125 C15.24621066 8.19849538 15.96289949 10.31982395 16.1875 14.4375 C16.03043367 17.42176021 15.70200829 20.10421581 15 23 C14.34 23 13.68 23 13 23 C12.71125 23.61875 12.4225 24.2375 12.125 24.875 C11 27 11 27 9 29 C6.03 29.33 3.06 29.66 0 30 C0 20.1 0 10.2 0 0 Z " fill="#F49032" transform="translate(151,69)"/>
<path d="M0 0 C7.45868849 1.06552693 8.19268473 1.19268473 13 6 C15.73644367 10.45489293 15.64310319 14.91948479 15 20 C12.66470799 24.85022186 9.7405686 27.48459625 5 30 C3.35 30 1.7 30 0 30 C0 20.1 0 10.2 0 0 Z " fill="#F58D2B" transform="translate(240,69)"/>
<path d="M0 0 C0 9.9 0 19.8 0 30 C-7.45868849 28.93447307 -8.19268473 28.80731527 -13 24 C-15.73644367 19.54510707 -15.64310319 15.08051521 -15 10 C-11.76452939 3.28017642 -7.47119947 0 0 0 Z " fill="#F68D2C" transform="translate(60,69)"/>
<path d="M0 0 C0 9.9 0 19.8 0 30 C-7.20692725 28.97043896 -8.51957947 28.74142684 -12.66015625 23.51171875 C-15.20173363 18.74718739 -15.23652336 14.18923005 -14 9 C-11.79679688 5.17119025 -9.23479168 1.7719414 -4.953125 0.29296875 C-3 0 -3 0 0 0 Z " fill="#BD974D" transform="translate(239,69)"/>
<path d="M0 0 C-3.56399578 2.37599719 -7.08381174 3.15731805 -11.1875 4.125 C-11.93708984 4.30675781 -12.68667969 4.48851563 -13.45898438 4.67578125 C-15.30470781 5.12251686 -17.15219132 5.5619694 -19 6 C-18.05769531 6.60328125 -17.11539063 7.2065625 -16.14453125 7.828125 C-11.35454411 11.13648879 -9.42768212 14.23224724 -8.0625 19.875 C-7.71777914 24.38222518 -8.68074343 28.12352831 -11 32 C-13.34765999 34.52248573 -15.90313285 36.45156643 -19 38 C-11.78630144 40.02364481 -4.56155849 41.89287402 2.75 43.53125 C4.50981201 43.92642822 4.50981201 43.92642822 6.30517578 44.32958984 C8.67693254 44.85805267 11.05031657 45.37926667 13.42529297 45.89306641 C14.51986816 46.13718262 15.61444336 46.38129883 16.7421875 46.6328125 C17.7307373 46.84824707 18.71928711 47.06368164 19.73779297 47.28564453 C20.48432129 47.52138184 21.23084961 47.75711914 22 48 C22.33 48.66 22.66 49.32 23 50 C8.90161804 47.1123796 -5.1238459 43.94456444 -19.13378906 40.65527344 C-21.79872971 40.04601443 -24.47049158 39.49373017 -27.1484375 38.9453125 C-31 38 -31 38 -33 36 C-30.69 36.33 -28.38 36.66 -26 37 C-26 27.1 -26 17.2 -26 7 C-28.31 7.33 -30.62 7.66 -33 8 C-30.16036747 5.62796677 -28.00627768 4.53474526 -24.375 3.8671875 C-23.50359375 3.70089844 -22.6321875 3.53460938 -21.734375 3.36328125 C-20.83203125 3.20214844 -19.9296875 3.04101562 -19 2.875 C-17.20821753 2.53968071 -15.41654654 2.20376503 -13.625 1.8671875 C-12.83351562 1.72394043 -12.04203125 1.58069336 -11.2265625 1.43310547 C-9.76931658 1.14964557 -8.31963108 0.82316057 -6.8828125 0.44970703 C-4.55426314 -0.1064636 -2.38478978 -0.06624416 0 0 Z M-25 7 C-25 16.9 -25 26.8 -25 37 C-17.54131151 35.93447307 -16.80731527 35.80731527 -12 31 C-9.26355633 26.54510707 -9.35689681 22.08051521 -10 17 C-12.33529201 12.14977814 -15.2594314 9.51540375 -20 7 C-21.65 7 -23.3 7 -25 7 Z " fill="#F0CFA8" transform="translate(265,62)"/>
<path d="M0 0 C1.95901454 0.11382653 3.9172338 0.24141125 5.875 0.375 C6.96554688 0.44460937 8.05609375 0.51421875 9.1796875 0.5859375 C12 1 12 1 14 3 C12.35 3 10.7 3 9 3 C9 12.9 9 22.8 9 33 C10.65 33 12.3 33 14 33 C10.19355712 35.53762859 8.52642303 35.51942559 4 35 C-1.40085279 32.65224123 -5.61189869 29.47273216 -8 24 C-8.70232947 18.68131744 -9.17914966 13.09418556 -6.25 8.375 C-4.20069294 6.21184255 -2.78292412 4.99390147 0 4 C0 2.68 0 1.36 0 0 Z M-3 7 C-6.93626932 11.35061345 -7.63883919 14.91777006 -7.3828125 20.6015625 C-6.57430704 25.66709673 -3.92421704 28.25276069 -0.0625 31.375 C3.15830426 33.39059651 3.15830426 33.39059651 8 33 C8 23.1 8 13.2 8 3 C2.4459508 3 1.19252404 3.61029971 -3 7 Z " fill="#F5D1A9" transform="translate(52,66)"/>
<path d="M0 0 C0.33 0 0.66 0 1 0 C1 17.82 1 35.64 1 54 C0.67 54 0.34 54 0 54 C0 45.42 0 36.84 0 28 C-1.98 28 -3.96 28 -6 28 C-6.33 29.32 -6.66 30.64 -7 32 C-7.33 31.34 -7.66 30.68 -8 30 C-10.52733235 29.34444881 -10.52733235 29.34444881 -13 29 C-12.67 27.35 -12.34 25.7 -12 24 C-10.68 24 -9.36 24 -8 24 C-7.34 23.34 -6.68 22.68 -6 22 C-6 23.32 -6 24.64 -6 26 C-4.02 26 -2.04 26 0 26 C0 17.42 0 8.84 0 0 Z " fill="#F2CBAC" transform="translate(289,57)"/>
<path d="M0 0 C-3.40266059 2.26844039 -6.0092118 2.80189993 -10 3.625 C-11.85625 4.01558594 -11.85625 4.01558594 -13.75 4.4140625 C-17 5 -17 5 -20 5 C-20 5.66 -20 6.32 -20 7 C-21.65 7 -23.3 7 -25 7 C-24.90653687 11.23623542 -24.80046087 15.47190851 -24.68261719 19.70751953 C-24.64430326 21.1488374 -24.60945457 22.59025168 -24.578125 24.03173828 C-24.53252554 26.10223886 -24.47452556 28.17207433 -24.4140625 30.2421875 C-24.3826416 31.4885498 -24.3512207 32.73491211 -24.31884766 34.01904297 C-24.30317691 37.11541776 -24.30317691 37.11541776 -22 39 C-28.4 39.36923077 -28.4 39.36923077 -31.4375 37.5 C-31.953125 37.005 -32.46875 36.51 -33 36 C-30.69 36.33 -28.38 36.66 -26 37 C-26 27.1 -26 17.2 -26 7 C-28.31 7.33 -30.62 7.66 -33 8 C-30.16036747 5.62796677 -28.00627768 4.53474526 -24.375 3.8671875 C-23.50359375 3.70089844 -22.6321875 3.53460938 -21.734375 3.36328125 C-20.83203125 3.20214844 -19.9296875 3.04101562 -19 2.875 C-17.20821753 2.53968071 -15.41654654 2.20376503 -13.625 1.8671875 C-12.83351562 1.72394043 -12.04203125 1.58069336 -11.2265625 1.43310547 C-9.76931658 1.14964557 -8.31963108 0.82316057 -6.8828125 0.44970703 C-4.55426314 -0.1064636 -2.38478978 -0.06624416 0 0 Z " fill="#E5D2B1" transform="translate(265,62)"/>
<path d="M0 0 C0.66 0 1.32 0 2 0 C2 9.9 2 19.8 2 30 C5.465 29.505 5.465 29.505 9 29 C6.28833082 31.71166918 4.18370867 31.75257241 0.453125 32.1015625 C-5.05405208 31.87355835 -9.32523468 28.92275562 -13 25 C-12.67 24.34 -12.34 23.68 -12 23 C-10.6328125 24.23697917 -9.265625 25.47395833 -7.8984375 26.7109375 C-5.49076998 28.47119527 -5.49076998 28.47119527 0 30 C0 20.1 0 10.2 0 0 Z " fill="#EFC599" transform="translate(149,69)"/>
<path d="M0 0 C2.33944736 0.28730055 4.6739143 0.61936779 7 1 C7 1.33 7 1.66 7 2 C5.35 2 3.7 2 2 2 C2 11.9 2 21.8 2 32 C3.65 32 5.3 32 7 32 C3.5647952 34.29013653 2.014669 34.17842973 -2 34 C-0.515 33.505 -0.515 33.505 1 33 C1 22.77 1 12.54 1 2 C0.34 1.67 -0.32 1.34 -1 1 C-0.67 0.67 -0.34 0.34 0 0 Z " fill="#E4D5B6" transform="translate(59,67)"/>
<path d="M0 0 C0.66 0.66 1.32 1.32 2 2 C4.57061311 2.64767793 4.57061311 2.64767793 7 3 C6.67 4.65 6.34 6.3 6 8 C4.68 8 3.36 8 2 8 C1.34 8.66 0.68 9.32 0 10 C0 8.68 0 7.36 0 6 C-1.98 6 -3.96 6 -6 6 C-6 5.34 -6 4.68 -6 4 C-4.02 4 -2.04 4 0 4 C0 2.68 0 1.36 0 0 Z " fill="#F8E1C9" transform="translate(17,79)"/>
<path d="M0 0 C0.33 0 0.66 0 1 0 C1 3.3 1 6.6 1 10 C0.34 9.34 -0.32 8.68 -1 8 C-3.57061311 7.35232207 -3.57061311 7.35232207 -6 7 C-5.67 5.35 -5.34 3.7 -5 2 C-3.68 2 -2.36 2 -1 2 C-0.67 1.34 -0.34 0.68 0 0 Z " fill="#FAECD9" transform="translate(282,79)"/>
<path d="M0 0 C2.31 0.33 4.62 0.66 7 1 C5.73006535 3.53986929 4.75945215 3.66204993 2.1875 4.75 C-2.09267298 6.77866367 -3.75465602 8.88353603 -6 13 C-6.66 12.67 -7.32 12.34 -8 12 C-4 5.42857143 -4 5.42857143 0 4 C0 2.68 0 1.36 0 0 Z " fill="#F4C899" transform="translate(52,66)"/>
</svg>
