<?xml version="1.0" standalone="no"?>
<!DOCTYPE svg PUBLIC "-//W3C//DTD SVG 20010904//EN"
 "http://www.w3.org/TR/2001/REC-SVG-20010904/DTD/svg10.dtd">
<svg version="1.0" xmlns="http://www.w3.org/2000/svg"
 width="225.000000pt" height="225.000000pt" viewBox="0 0 225.000000 225.000000"
 preserveAspectRatio="xMidYMid meet">

<g transform="translate(0.000000,225.000000) scale(0.100000,-0.100000)"
fill="#000000" stroke="none">
<path d="M425 1896 c-16 -8 -116 -99 -222 -203 -207 -203 -219 -220 -194 -295
12 -38 356 -400 402 -423 96 -50 208 25 196 132 -4 36 -16 55 -72 118 l-67 75
561 0 c377 0 577 -4 613 -11 299 -64 436 -416 257 -663 -19 -26 -44 -61 -56
-78 -71 -97 31 -234 147 -199 56 16 132 105 185 216 58 121 70 177 69 320 -1
101 -5 133 -27 200 -84 256 -298 436 -564 475 -38 5 -316 10 -628 10 l-559 0
61 63 c86 87 103 140 63 204 -36 60 -108 86 -165 59z"/>
</g>
</svg>
