<?xml version="1.0" standalone="no"?>
<!DOCTYPE svg PUBLIC "-//W3C//DTD SVG 20010904//EN"
 "http://www.w3.org/TR/2001/REC-SVG-20010904/DTD/svg10.dtd">
<svg version="1.0" xmlns="http://www.w3.org/2000/svg"
 width="1024.000000pt" height="1024.000000pt" viewBox="0 0 1024.000000 1024.000000"
 preserveAspectRatio="xMidYMid meet">

<g transform="translate(0.000000,1024.000000) scale(0.100000,-0.100000)"
fill="#000000" stroke="none">
<path d="M1001 6165 c-24 -8 -59 -29 -78 -47 -87 -85 -81 -281 12 -368 15 -14
65 -52 113 -85 93 -65 132 -111 132 -157 0 -31 -16 -68 -34 -80 -14 -10 -68
-10 -83 0 -17 11 -33 58 -33 95 l0 32 -86 1 -86 1 4 -82 c4 -100 28 -143 102
-180 40 -20 65 -25 125 -25 129 0 197 31 241 110 21 38 25 58 25 130 0 132
-28 174 -184 280 -47 31 -94 67 -104 78 -24 27 -36 79 -26 116 10 36 24 46 66
46 39 0 63 -30 63 -77 l0 -33 85 0 85 0 0 30 c0 112 -55 196 -143 218 -60 16
-141 14 -196 -3z"/>
<path d="M3416 6166 c-93 -35 -128 -85 -134 -195 -2 -42 1 -95 8 -119 14 -53
71 -118 148 -168 103 -67 141 -103 153 -144 22 -71 -7 -120 -70 -120 -49 0
-63 18 -69 86 l-4 54 -84 0 -84 0 1 -67 c1 -84 15 -124 58 -168 41 -42 87 -58
171 -59 91 -1 156 20 201 65 44 44 59 89 59 178 0 126 -35 182 -172 273 -108
73 -138 105 -145 157 -8 59 15 91 66 91 46 0 61 -15 68 -70 l6 -40 78 0 79 0
0 58 c0 79 -31 139 -90 171 -55 31 -183 40 -244 17z"/>
<path d="M4735 6171 c-70 -17 -125 -73 -151 -153 -25 -78 -32 -444 -10 -548
31 -145 104 -205 251 -204 151 0 225 70 242 224 l6 60 -85 0 -85 0 -7 -42
c-11 -70 -30 -90 -79 -86 -38 3 -44 7 -62 43 -18 36 -20 60 -20 250 0 224 8
272 48 300 50 35 97 5 106 -68 l6 -42 88 -3 87 -3 0 34 c0 58 -29 136 -67 178
-53 59 -166 84 -268 60z"/>
<path d="M5264 6165 c-1 -5 -42 -201 -89 -435 -48 -234 -89 -433 -91 -442 -5
-16 4 -18 89 -18 l94 0 12 75 12 75 80 0 c43 0 82 0 86 1 9 0 18 -35 28 -103
l6 -48 90 0 c52 0 89 4 89 10 0 13 -169 849 -176 872 -4 14 -22 17 -116 20
-68 2 -112 -1 -114 -7z m126 -232 c1 -16 13 -103 29 -195 l27 -168 -69 0 c-51
0 -68 3 -65 13 3 6 18 94 34 194 26 167 43 226 44 156z"/>
<path d="M5818 6170 c-88 -26 -137 -95 -145 -203 -10 -124 31 -196 167 -289
120 -81 150 -116 150 -173 0 -56 -25 -85 -73 -85 -45 0 -65 25 -70 85 l-5 50
-86 3 -86 3 0 -54 c0 -113 41 -188 122 -221 56 -24 191 -21 248 5 94 42 124
96 124 219 0 134 -30 180 -194 290 -103 69 -125 97 -125 157 0 51 20 74 65 75
42 1 70 -30 70 -78 l0 -34 85 0 85 0 0 43 c0 67 -19 119 -59 158 -20 20 -54
42 -76 48 -46 13 -157 13 -197 1z"/>
<path d="M390 5725 l0 -444 210 -3 210 -3 0 83 0 82 -125 0 -125 0 0 105 0
105 110 0 110 0 0 75 0 75 -110 0 -110 0 0 108 0 107 122 0 123 0 3 78 3 77
-211 0 -210 0 0 -445z"/>
<path d="M1370 6090 l0 -80 75 0 75 0 0 -370 0 -370 90 0 90 0 0 370 0 370 75
0 75 0 0 80 0 80 -240 0 -240 0 0 -80z"/>
<path d="M1985 6158 c-2 -7 -43 -204 -91 -438 -48 -234 -89 -431 -91 -437 -4
-10 18 -13 90 -13 l95 0 7 43 c3 23 9 57 12 75 l5 32 79 0 c44 0 82 0 87 1 7
0 11 -19 27 -113 l6 -38 89 0 c50 0 90 4 90 9 0 12 -169 849 -176 874 -5 15
-19 17 -115 17 -79 0 -111 -4 -114 -12z m116 -586 c-35 -2 -64 -2 -66 0 -2 3
60 375 65 388 1 3 16 -83 33 -190 l32 -195 -64 -3z"/>
<path d="M2432 5724 l3 -449 140 0 c163 1 217 13 275 62 78 67 109 176 110
383 0 198 -28 305 -98 373 -58 56 -105 69 -280 75 l-152 4 2 -448z m273 280
c56 -26 68 -67 73 -244 5 -194 -6 -264 -48 -302 -24 -22 -40 -28 -75 -28 l-45
0 0 295 0 295 31 0 c17 0 46 -7 64 -16z"/>
<path d="M3040 6165 c0 -3 0 -204 0 -447 l0 -443 85 -3 85 -3 0 451 0 450 -85
0 c-47 0 -85 -2 -85 -5z"/>
<path d="M3790 6090 l0 -80 75 0 75 0 0 -370 0 -370 85 0 85 0 0 370 0 370 68
1 c37 1 70 1 75 0 4 0 7 35 7 79 l0 80 -235 0 -235 0 0 -80z"/>
<path d="M4310 5725 l0 -445 85 0 85 0 0 445 0 445 -85 0 -85 0 0 -445z"/>
<path d="M8890 5794 l0 -85 -26 20 c-32 25 -92 28 -135 5 -66 -34 -90 -167
-46 -254 38 -77 134 -103 187 -50 20 20 32 17 23 -6 -4 -11 5 -14 36 -14 l41
0 0 235 0 235 -40 0 -40 0 0 -86z m-25 -129 c21 -20 25 -34 25 -79 0 -94 -35
-132 -99 -110 -38 14 -52 50 -48 118 3 47 8 63 26 77 32 26 67 24 96 -6z"/>
<path d="M6580 5635 l0 -225 45 0 45 0 0 80 0 80 63 0 c147 1 226 100 171 216
-28 58 -73 74 -209 74 l-115 0 0 -225z m210 152 c32 -16 52 -59 44 -92 -8 -34
-52 -55 -114 -55 l-50 0 0 80 0 80 48 0 c26 0 58 -6 72 -13z"/>
<path d="M9190 5635 l0 -225 108 0 c92 0 114 3 152 23 50 25 70 55 70 109 0
39 -39 98 -66 98 -20 0 -18 5 16 38 22 23 30 40 30 67 0 83 -58 115 -210 115
l-100 0 0 -225z m208 149 c26 -18 30 -65 7 -88 -18 -18 -69 -29 -110 -24 -27
3 -28 5 -27 61 0 31 1 59 1 62 2 12 108 4 129 -11z m19 -196 c28 -26 29 -58 4
-89 -17 -21 -28 -24 -83 -24 -34 0 -64 3 -65 8 -2 4 -3 34 -3 67 l0 60 62 0
c50 0 66 -4 85 -22z"/>
<path d="M7030 5743 c-23 -9 -60 -45 -76 -75 -19 -37 -18 -142 2 -184 56 -117
249 -99 284 25 24 88 -3 185 -62 221 -32 19 -111 26 -148 13z m110 -73 c26
-26 34 -60 27 -118 -8 -76 -73 -108 -124 -60 -19 18 -23 32 -23 85 0 55 4 68
25 88 29 30 68 32 95 5z"/>
<path d="M7260 5743 c0 -4 22 -80 49 -168 l48 -160 39 0 39 0 36 118 36 119
35 -119 34 -118 39 0 39 0 48 155 c26 85 48 161 48 168 0 9 -12 12 -37 10
l-38 -3 -29 -114 c-17 -63 -32 -108 -35 -100 -3 8 -19 59 -36 114 l-30 100
-40 0 -40 0 -32 -110 c-18 -60 -33 -112 -33 -115 -1 -3 -16 47 -33 110 l-32
115 -38 3 c-20 2 -37 0 -37 -5z"/>
<path d="M7839 5727 c-47 -31 -69 -79 -69 -150 0 -65 21 -119 54 -143 61 -43
155 -37 209 14 33 32 33 37 3 57 -23 15 -25 15 -50 -9 -47 -48 -136 -21 -136
42 0 20 5 21 108 24 l107 3 3 27 c5 42 -32 115 -70 138 -46 28 -115 27 -159
-3z m130 -63 c36 -46 29 -54 -49 -54 -79 0 -89 12 -45 55 32 33 68 32 94 -1z"/>
<path d="M8120 5579 l0 -170 38 3 37 3 3 115 c3 127 13 150 64 150 28 0 34 7
40 45 4 29 -38 32 -73 6 -35 -26 -39 -26 -39 -1 0 16 -7 20 -35 20 l-35 0 0
-171z"/>
<path d="M8415 5740 c-27 -11 -61 -49 -74 -83 -15 -40 -14 -131 3 -171 37 -88
164 -108 246 -40 37 31 37 39 5 60 -25 16 -27 16 -53 -10 -50 -47 -132 -24
-132 39 l0 25 104 0 c115 0 121 3 109 63 -15 83 -66 127 -143 126 -25 0 -54
-4 -65 -9z m103 -67 c11 -10 23 -28 27 -40 6 -22 4 -23 -64 -23 -79 0 -91 13
-49 57 26 27 58 30 86 6z"/>
<path d="M9530 5742 c0 -5 27 -86 60 -180 49 -140 58 -175 50 -196 -8 -21 -16
-26 -44 -26 -28 0 -35 -4 -40 -27 -9 -33 5 -43 62 -43 66 0 80 23 161 256 39
113 71 210 71 215 0 5 -18 9 -39 9 l-39 0 -20 -67 c-12 -38 -29 -96 -39 -130
-10 -35 -20 -63 -23 -63 -3 0 -13 28 -23 63 -10 34 -27 92 -38 130 l-20 67
-39 0 c-22 0 -40 -4 -40 -8z"/>
<path d="M6587 5254 c-4 -4 -7 -97 -7 -206 l0 -198 38 0 37 0 0 144 c0 79 3
142 8 139 4 -2 7 -9 7 -15 0 -5 18 -68 41 -140 l41 -129 36 3 35 3 40 130 c21
72 42 137 45 145 4 8 8 -51 10 -132 l3 -148 34 0 35 0 0 205 0 205 -54 0 -55
0 -16 -57 c-9 -32 -30 -103 -47 -158 -35 -116 -28 -122 -87 80 l-38 130 -50 3
c-27 2 -52 0 -56 -4z"/>
<path d="M7054 5246 c-12 -31 0 -51 31 -51 27 0 30 3 30 30 0 25 -4 30 -28 33
-17 2 -29 -2 -33 -12z"/>
<path d="M8120 5055 l0 -205 35 0 35 0 0 205 0 205 -35 0 -35 0 0 -205z"/>
<path d="M8370 5057 c0 -112 2 -206 5 -209 3 -2 18 -3 35 0 30 4 30 4 30 72
l0 67 74 5 c89 6 130 30 147 88 16 52 5 101 -30 134 -35 34 -82 45 -183 46
l-78 0 0 -203z m184 129 c36 -15 51 -52 35 -92 -9 -26 -65 -45 -114 -40 -29 3
-30 5 -33 61 -2 32 -1 64 2 71 7 18 67 18 110 0z"/>
<path d="M7238 5134 c-52 -28 -79 -117 -58 -193 22 -82 91 -117 162 -82 l38
18 0 -32 c0 -18 -8 -39 -18 -48 -32 -29 -112 -16 -112 18 0 18 -11 19 -45 3
-32 -14 -31 -19 3 -56 53 -57 170 -50 216 11 19 26 21 45 25 198 l3 170 -33
-3 c-21 -2 -33 -8 -31 -15 1 -7 -2 -13 -8 -13 -5 0 -10 4 -10 8 0 13 -47 32
-78 32 -15 -1 -39 -7 -54 -16z m108 -52 c38 -25 46 -114 13 -156 -26 -33 -62
-34 -94 -1 -51 50 -21 165 43 165 15 0 32 -4 38 -8z"/>
<path d="M7900 5143 c-76 -28 -114 -145 -73 -230 34 -73 147 -92 213 -36 36
30 37 40 6 54 -20 9 -27 8 -45 -10 -40 -40 -121 -14 -121 39 0 19 7 20 96 20
l97 0 -5 50 c-3 29 -13 59 -24 71 -34 39 -101 58 -144 42z m82 -65 c9 -7 18
-22 20 -33 3 -18 -3 -20 -59 -23 -68 -3 -76 4 -47 46 17 25 60 30 86 10z"/>
<path d="M8751 5132 c-19 -9 -41 -27 -49 -39 -13 -21 -12 -23 13 -33 23 -9 32
-7 50 10 28 26 81 27 95 1 21 -40 13 -48 -52 -55 -96 -10 -132 -48 -114 -122
12 -47 99 -70 146 -37 17 12 25 13 28 5 2 -7 17 -12 33 -12 l29 0 0 116 c0 63
-5 124 -11 136 -13 23 -67 48 -106 48 -15 0 -43 -8 -62 -18z m115 -166 c7 -19
-12 -53 -37 -67 -44 -23 -98 21 -69 56 20 24 98 32 106 11z"/>
<path d="M9321 5133 c-57 -30 -76 -65 -76 -138 0 -49 5 -71 21 -92 64 -87 187
-78 237 18 22 40 18 126 -7 165 -38 56 -117 78 -175 47z m108 -69 c46 -58 14
-164 -49 -164 -40 0 -70 41 -70 95 0 54 30 95 70 95 19 0 36 -9 49 -26z"/>
<path d="M9663 5131 c-27 -17 -33 -18 -33 -6 0 10 -10 15 -30 15 l-30 0 0
-145 0 -145 30 0 30 0 0 93 c0 110 12 141 57 145 50 5 63 -24 63 -140 l0 -98
30 0 30 0 0 119 c0 110 -2 122 -22 146 -31 35 -83 42 -125 16z"/>
<path d="M7050 4995 l0 -145 35 0 35 0 0 145 0 145 -35 0 -35 0 0 -145z"/>
<path d="M7509 5136 c-2 -2 -3 -57 -3 -121 2 -112 3 -118 28 -144 33 -33 102
-37 135 -7 19 17 21 17 21 3 0 -13 9 -17 35 -17 l35 0 0 145 0 145 -35 0 -35
0 0 -98 c0 -112 -13 -142 -60 -142 -47 0 -60 30 -60 142 l0 98 -28 0 c-16 0
-31 -2 -33 -4z"/>
<path d="M8960 5132 c0 -4 22 -68 49 -142 l48 -135 38 0 38 0 48 135 c27 74
49 138 49 142 0 4 -15 8 -33 8 -33 0 -33 0 -66 -100 -18 -55 -34 -100 -36
-100 -2 0 -18 45 -36 100 -33 100 -33 100 -66 100 -18 0 -33 -4 -33 -8z"/>
<path d="M2615 5108 c-92 -32 -134 -101 -135 -218 0 -128 40 -189 189 -285 36
-23 81 -58 99 -78 67 -70 46 -167 -37 -167 -52 0 -71 23 -71 88 l0 52 -90 0
-90 0 0 -67 c1 -103 47 -184 122 -212 56 -21 151 -24 217 -7 123 31 163 83
169 218 4 79 2 93 -22 141 -31 64 -45 78 -166 159 -52 36 -105 80 -117 98 -46
66 -19 140 50 140 41 0 66 -25 74 -74 l6 -36 83 0 84 0 0 33 c-1 97 -44 176
-114 208 -47 21 -198 25 -251 7z"/>
<path d="M1290 4663 l0 -449 123 -2 c241 -5 333 22 378 110 26 51 36 174 20
236 -14 50 -63 110 -98 118 l-24 6 29 18 c16 10 40 33 53 52 21 29 24 44 24
128 0 83 -3 101 -25 139 -43 76 -73 85 -292 89 l-188 3 0 -448z m278 296 c38
-13 57 -61 49 -126 -7 -61 -32 -85 -96 -91 l-51 -5 0 117 0 116 34 0 c18 0 47
-5 64 -11z m22 -364 c44 -23 60 -93 39 -168 -12 -45 -52 -67 -119 -67 l-40 0
0 125 0 125 45 0 c26 0 59 -7 75 -15z"/>
<path d="M2026 5093 c-3 -10 -35 -160 -70 -333 -36 -173 -75 -366 -89 -428
-13 -62 -21 -114 -19 -117 3 -3 45 -5 93 -5 l88 0 11 58 c22 114 10 102 105
102 47 0 85 -1 86 -2 0 -2 6 -36 12 -76 l12 -74 90 0 c90 -1 90 -1 87 23 -3
18 -138 696 -169 842 l-5 27 -114 0 c-99 0 -113 -2 -118 -17z m154 -390 c16
-99 30 -184 30 -187 0 -3 -29 -6 -65 -6 -46 0 -65 4 -65 13 0 15 47 307 57
352 8 39 7 41 43 -172z"/>
<path d="M3062 4663 l3 -448 92 -3 93 -3 2 198 3 198 80 -195 80 -195 98 -3
c53 -1 97 1 97 6 0 10 -179 425 -197 457 -9 16 7 55 93 227 l104 208 -95 0
-95 0 -85 -171 -85 -171 0 171 0 171 -95 0 -95 0 2 -447z"/>
<path d="M3690 4660 l0 -450 215 0 215 0 0 85 0 85 -130 0 -130 0 0 105 0 104
113 3 112 3 0 75 0 75 -110 1 -110 1 0 103 0 102 123 -1 122 -2 0 80 0 81
-210 0 -210 0 0 -450z"/>
<path d="M4160 5030 l0 -80 80 0 80 0 0 -370 0 -370 90 0 90 0 0 370 0 370 80
0 80 0 0 80 0 80 -250 0 -250 0 0 -80z"/>
<path d="M6882 4708 c-25 -25 -6 -68 30 -68 9 0 22 9 28 19 13 25 13 27 -6 45
-19 19 -36 20 -52 4z"/>
<path d="M6580 4505 l0 -205 131 0 130 0 -3 28 c-3 27 -3 27 -90 30 l-88 3 0
174 0 175 -40 0 -40 0 0 -205z"/>
<path d="M7033 4592 c-23 -3 -23 -6 -23 -148 l0 -144 30 0 30 0 0 103 c0 70 4
109 13 121 15 20 62 25 79 8 6 -6 11 -58 12 -119 l1 -108 33 -3 32 -3 0 101
c0 115 8 140 48 140 46 0 52 -15 52 -132 l0 -108 36 0 36 0 -4 125 c-3 110 -5
127 -24 145 -32 32 -89 37 -125 11 l-30 -22 -26 20 c-33 27 -73 27 -107 0 -21
-16 -26 -17 -26 -5 0 19 -9 23 -37 18z"/>
<path d="M7520 4582 c-44 -21 -70 -72 -70 -135 0 -92 50 -147 134 -147 93 1
136 46 136 145 0 125 -95 190 -200 137z m112 -59 c41 -36 26 -153 -22 -168
-55 -17 -90 20 -90 96 0 84 55 120 112 72z"/>
<path d="M7775 4592 c-3 -3 -5 -70 -5 -149 l0 -143 35 0 35 0 0 108 c0 119 5
132 55 132 50 0 55 -13 55 -132 l0 -108 35 0 35 0 0 108 c0 134 -15 172 -74
187 -32 8 -45 6 -77 -12 -33 -18 -38 -19 -41 -5 -3 14 -42 25 -53 14z"/>
<path d="M8133 4581 c-43 -27 -63 -69 -63 -131 0 -64 24 -116 61 -135 58 -31
164 -11 189 34 8 15 5 22 -13 34 -21 13 -25 13 -50 -9 -16 -13 -39 -24 -53
-24 -29 0 -64 32 -64 60 0 18 8 20 93 22 l92 3 -1 48 c0 40 -6 53 -31 79 -41
41 -112 49 -160 19z m120 -63 c28 -33 21 -38 -48 -38 -64 0 -76 8 -57 36 24
37 74 38 105 2z"/>
<path d="M8430 4593 c-33 -12 -60 -47 -60 -78 0 -44 25 -73 73 -85 73 -19 89
-28 85 -53 -5 -34 -66 -36 -97 -3 -20 21 -27 23 -47 14 -31 -14 -30 -23 5 -59
26 -25 37 -29 86 -29 80 0 124 28 125 78 0 50 -36 82 -109 96 -35 6 -61 22
-61 37 0 15 31 39 51 39 11 0 31 -11 45 -25 20 -20 29 -23 49 -15 25 9 25 11
11 39 -22 41 -102 64 -156 44z"/>
<path d="M6880 4455 c0 -74 -1 -138 -2 -142 -2 -5 12 -9 30 -11 l32 -3 0 145
0 146 -30 0 -30 0 0 -135z"/>
</g>
</svg>
